<svg width="16" height="16" viewBox="0 0 16 16" fill="none" xmlns="http://www.w3.org/2000/svg">
<path d="M0 3V11C0 11.55 0.45 12 1 12H6V11H1V3H6V2H1C0.45 2 0 2.45 0 3ZM3 14.5C3 14.775 3.225 15 3.5 15H6V14H3.5C3.225 14 3 14.225 3 14.5ZM15 2H9C8.45 2 8 2.45 8 3V14C8 14.55 8.45 15 9 15H15C15.55 15 16 14.55 16 14V3C16 2.45 15.55 2 15 2ZM15 14H9V3H15V14ZM12 6C12.1989 6 12.3897 5.92098 12.5303 5.78033C12.671 5.63968 12.75 5.44891 12.75 5.25C12.75 5.05109 12.671 4.86032 12.5303 4.71967C12.3897 4.57902 12.1989 4.5 12 4.5C11.8011 4.5 11.6103 4.57902 11.4697 4.71967C11.329 4.86032 11.25 5.05109 11.25 5.25C11.25 5.44891 11.329 5.63968 11.4697 5.78033C11.6103 5.92098 11.8011 6 12 6ZM12 12C12.5304 12 13.0391 11.7893 13.4142 11.4142C13.7893 11.0391 14 10.5304 14 10C14 9.46957 13.7893 8.96086 13.4142 8.58579C13.0391 8.21071 12.5304 8 12 8C11.4696 8 10.9609 8.21071 10.5858 8.58579C10.2107 8.96086 10 9.46957 10 10C10 10.5304 10.2107 11.0391 10.5858 11.4142C10.9609 11.7893 11.4696 12 12 12ZM12 9C12.551 9 13 9.449 13 10C13 10.551 12.551 11 12 11C11.449 11 11 10.551 11 10C11 9.449 11.449 9 12 9Z" fill="white"/>
</svg>
