<svg width="16" height="16" viewBox="0 0 16 16" fill="none" xmlns="http://www.w3.org/2000/svg">
<path d="M12.945 1.37891L12.293 2.14191C13.87 3.60391 14.863 5.68591 14.863 7.99991C14.863 10.3139 13.869 12.3959 12.293 13.8579L12.944 14.6209C13.8641 13.7808 14.5991 12.7582 15.102 11.6183C15.6048 10.4783 15.8646 9.24607 15.8647 8.00013C15.8648 6.75419 15.6052 5.5219 15.1025 4.38188C14.5998 3.24185 13.865 2.21912 12.945 1.37891V1.37891ZM10.673 4.03891L10.022 4.80191C10.4467 5.21933 10.784 5.71716 11.0143 6.26636C11.2445 6.81556 11.363 7.40511 11.3629 8.00062C11.3628 8.59612 11.2441 9.18564 11.0137 9.73476C10.7833 10.2839 10.4458 10.7816 10.021 11.1989L10.672 11.9619C11.712 10.9619 12.363 9.55791 12.363 8.00091C12.363 6.44391 11.713 5.03891 10.673 4.03891V4.03891ZM0 4.99991V10.9999H2.804L8 13.9999V1.99991L2.804 4.99991H0ZM7 3.73191V12.2679L3.072 9.99991H1V5.99991H3.072L7 3.73191Z" fill="white"/>
</svg>
