<svg width="24" height="24" viewBox="0 0 24 24" fill="none" xmlns="http://www.w3.org/2000/svg">
<path fill-rule="evenodd" clip-rule="evenodd" d="M16.3929 16.3104L20.7858 21.4652L20.0239 22.12L15.6191 16.9652C14.1032 18.116 12.3968 18.6914 10.5 18.6914C9.34917 18.6914 8.24798 18.4672 7.19642 18.0188C6.14486 17.5704 5.24009 16.9672 4.48213 16.2092C3.72416 15.4513 3.12098 14.5465 2.67261 13.495C2.22423 12.4434 2.00003 11.3422 2 10.1914C1.99997 9.04061 2.22417 7.93942 2.67261 6.88783C3.12105 5.83623 3.72422 4.93147 4.48213 4.17353C5.24003 3.41559 6.1448 2.81242 7.19642 2.36402C8.24805 1.91561 9.34924 1.69141 10.5 1.69141C11.6507 1.69141 12.7519 1.91561 13.8035 2.36402C14.8552 2.81242 15.7599 3.41559 16.5178 4.17353C17.2758 4.93147 17.8789 5.83623 18.3274 6.88783C18.7758 7.93942 19 9.04061 19 10.1914C19 11.3739 18.7698 12.493 18.3095 13.5485C17.8492 14.6041 17.2103 15.5247 16.3928 16.3105L16.3929 16.3104ZM10.5001 17.6913C11.8572 17.6913 13.1112 17.356 14.262 16.6854C15.4128 16.0147 16.3235 15.104 16.9941 13.9532C17.6648 12.8024 18.0001 11.5485 18.0001 10.1913C18.0002 8.83414 17.6648 7.58017 16.9941 6.42939C16.3235 5.27861 15.4127 4.36791 14.262 3.69728C13.1112 3.02666 11.8573 2.69134 10.5001 2.69134C9.14289 2.69134 7.88892 3.02666 6.73817 3.69728C5.58742 4.36791 4.67672 5.27861 4.00606 6.42939C3.33541 7.58017 3.00009 8.83414 3.00013 10.1913C3.00016 11.5485 3.33547 12.8024 4.00606 13.9532C4.67666 15.104 5.58736 16.0147 6.73817 16.6854C7.88898 17.356 9.14295 17.6913 10.5001 17.6913Z" fill="white"/>
</svg>
