<svg width="16" height="16" viewBox="0 0 16 16" fill="none" xmlns="http://www.w3.org/2000/svg">
<g clip-path="url(#clip0)">
<path d="M12.9726 10.9743L10.3998 9.49588C10.2582 9.41508 10.2174 9.28628 10.2054 9.21748C10.1934 9.14868 10.1894 9.01428 10.295 8.88948L11.3438 7.65989C12.0246 6.86469 12.3998 5.84949 12.3998 4.80069V4.40069C12.3998 3.18869 11.8926 2.01909 11.0086 1.18949C10.1118 0.348692 8.9382 -0.0697074 7.7086 0.00949259C5.4046 0.159092 3.6006 2.14789 3.6006 4.53749V4.80069C3.6006 5.84949 3.9758 6.86469 4.6558 7.65989L5.7046 8.88948C5.811 9.01348 5.8062 9.14788 5.7942 9.21748C5.7822 9.28628 5.7414 9.41508 5.599 9.49588L3.0286 10.9735C1.6534 11.7543 0.799805 13.2215 0.799805 14.8015V16.0007H1.5998V14.8015C1.5998 13.5087 2.299 12.3087 3.4262 11.6679L5.9982 10.1895C6.3086 10.0111 6.5214 9.70628 6.5822 9.35348C6.643 9.00148 6.5454 8.64228 6.3126 8.37028L5.263 7.14069C4.7062 6.48949 4.399 5.65829 4.399 4.80069V4.53749C4.399 2.56869 5.87501 0.930292 7.75901 0.807892C8.76861 0.743092 9.727 1.08549 10.4606 1.77269C11.195 2.46149 11.5998 3.39509 11.5998 4.40069V4.80069C11.5998 5.65829 11.2934 6.48949 10.7358 7.14069L9.687 8.37028C9.455 8.64308 9.35661 9.00148 9.41741 9.35348C9.47901 9.70628 9.69181 10.0111 10.0022 10.1895L12.5766 11.6687C13.7014 12.3079 14.4006 13.5079 14.4006 14.8015V16.0007H15.2006V14.8015C15.1998 13.2215 14.3454 11.7543 12.9726 10.9743Z" fill="white"/>
</g>
<defs>
<clipPath id="clip0">
<rect width="16" height="16" fill="white"/>
</clipPath>
</defs>
</svg>
