<svg width="12" height="12" viewBox="0 0 12 12" fill="none" xmlns="http://www.w3.org/2000/svg">
<path d="M10.3474 2.04581C9.81013 1.50374 9.08878 1.18337 8.32639 1.14822C7.56399 1.11308 6.81623 1.36572 6.23138 1.85606C6.16411 1.90683 6.08307 1.93611 5.99888 1.94006C5.91418 1.93759 5.83247 1.90816 5.76563 1.85606C5.18105 1.36544 4.43334 1.11261 3.67097 1.14776C2.90861 1.18291 2.18734 1.50348 1.65038 2.04581C1.07288 2.62331 0.754883 3.39131 0.754883 4.20806C0.754883 5.02481 1.07288 5.79281 1.63088 6.34931L4.97738 10.2666C5.10349 10.4145 5.26019 10.5333 5.43668 10.6148C5.61318 10.6962 5.80525 10.7384 5.99963 10.7384C6.19402 10.7384 6.38609 10.6962 6.56258 10.6148C6.73907 10.5333 6.89578 10.4145 7.02188 10.2666L10.3481 6.37031C10.633 6.08703 10.8589 5.75007 11.0128 5.37893C11.1666 5.00779 11.2453 4.60982 11.2444 4.20806C11.245 3.80627 11.1661 3.40834 11.0121 3.03722C10.8582 2.6661 10.6323 2.32915 10.3474 2.04581V2.04581Z" fill="white"/>
</svg>
