<svg width="16" height="16" viewBox="0 0 16 16" fill="none" xmlns="http://www.w3.org/2000/svg">
<path d="M13.7636 2.72709C13.0473 2.00434 12.0855 1.57718 11.069 1.53031C10.0525 1.48345 9.05545 1.82031 8.27565 2.47409C8.18595 2.54179 8.0779 2.58083 7.96565 2.58609C7.85271 2.5828 7.74376 2.54356 7.65465 2.47409C6.87521 1.81994 5.87826 1.48283 4.86177 1.5297C3.84528 1.57657 2.88359 2.00399 2.16765 2.72709C1.78787 3.10481 1.48679 3.55411 1.28184 4.04898C1.07689 4.54385 0.972136 5.07446 0.973649 5.61009C0.973649 6.69909 1.39765 7.72309 2.14165 8.46509L6.60365 13.6881C6.77179 13.8853 6.98073 14.0437 7.21605 14.1524C7.45137 14.261 7.70747 14.3172 7.96665 14.3172C8.22583 14.3172 8.48192 14.261 8.71725 14.1524C8.95257 14.0437 9.16151 13.8853 9.32965 13.6881L13.7646 8.49309C14.1445 8.11539 14.4457 7.66612 14.6508 7.17126C14.856 6.6764 14.9609 6.14578 14.9596 5.61009C14.9605 5.07438 14.8553 4.5438 14.65 4.04897C14.4447 3.55415 14.1435 3.10488 13.7636 2.72709V2.72709ZM13.0416 7.82509L8.57965 13.0481C8.27265 13.4081 7.65865 13.4081 7.35165 13.0481L2.86365 7.79709C2.57568 7.51051 2.34741 7.16965 2.19207 6.79425C2.03673 6.41885 1.95739 6.01636 1.95865 5.61009C1.95865 4.78409 2.27965 4.00709 2.86365 3.42309C3.15068 3.13405 3.49201 2.90458 3.86802 2.7479C4.24403 2.59121 4.6473 2.5104 5.05465 2.51009C5.76994 2.50964 6.46264 2.76059 7.01165 3.21909C7.05265 3.25509 7.41965 3.57009 7.96565 3.57009C8.49665 3.57009 8.87165 3.26009 8.90565 3.23009C9.49682 2.73419 10.2528 2.47867 11.0236 2.51424C11.7944 2.54981 12.5237 2.87386 13.0666 3.42209C13.3557 3.71194 13.5845 4.05618 13.7399 4.43493C13.8952 4.81368 13.974 5.21944 13.9716 5.6288C13.9693 6.03816 13.8859 6.443 13.7263 6.81997C13.5667 7.19693 13.334 7.53854 13.0416 7.82509V7.82509Z" fill="white"/>
</svg>
