<svg width="16" height="16" viewBox="0 0 16 16" fill="none" xmlns="http://www.w3.org/2000/svg">
<path d="M4.50039 6.8L5.20039 6C4.10039 4.7 2.50039 4 0.900391 4V5C2.20039 5 3.50039 5.6 4.40039 6.6L4.50039 6.8ZM12.0004 11.5C10.8004 11.5 9.70039 11 8.80039 10.2L8.20039 11C9.20039 12 10.6004 12.5 12.0004 12.5V14L15.5004 12L12.0004 10V11.5ZM12.0004 5.5V7L15.5004 5L12.0004 3V4.5C10.4004 4.5 8.80039 5.2 7.80039 6.5L4.40039 10.4C3.50039 11.4 2.20039 12 0.900391 12V13C2.50039 13 4.10039 12.3 5.10039 11L8.50039 7.1C9.40039 6.1 10.7004 5.5 12.0004 5.5Z" fill="white"/>
</svg>
